<svg width="215" height="119" viewBox="0 0 215 119" fill="none" xmlns="http://www.w3.org/2000/svg">
<g filter="url(#filter0_d_1403_4925)">
<rect width="150.234" height="95.7621" rx="5.3655" transform="matrix(0.923789 0.382901 -0.793497 0.608574 76 0)" fill="white" shape-rendering="crispEdges"/>
<path d="M65.362 47.04L67.0311 44.3893L62.4961 42.5096L58.5068 44.1986L56.4542 43.3478L71.0973 37.3314L73.2553 38.2258L67.4308 47.8975L65.362 47.04ZM67.9636 43.0798L69.6234 40.4746C69.7009 40.3641 69.8083 40.2082 69.9455 40.0071C70.0873 39.8025 70.2315 39.5961 70.378 39.3878C70.5292 39.1761 70.6567 38.9984 70.7606 38.8548C70.516 38.9785 70.2347 39.1144 69.9167 39.2625C69.6087 39.4092 69.3146 39.5453 69.0345 39.6707C68.7597 39.7983 68.5477 39.897 68.3983 39.9669L64.4752 41.6339L67.9636 43.0798ZM81.2703 44.3472C82.3358 44.7888 82.8559 45.3995 82.8305 46.1794C82.8105 46.9615 82.1409 47.8584 80.8215 48.8703C79.9481 49.5402 79.0603 50.0422 78.1582 50.3762C77.2661 50.709 76.3963 50.8809 75.5488 50.8919C74.7114 50.9015 73.9357 50.7584 73.2218 50.4625C72.7675 50.2742 72.4238 50.0713 72.1907 49.854C71.9575 49.6366 71.8033 49.4162 71.7279 49.1929C71.6572 48.966 71.6382 48.7441 71.6711 48.5272L71.5575 48.4801C71.3987 48.6338 71.2164 48.8025 71.0103 48.986C70.8144 49.1683 70.6235 49.3306 70.4377 49.4732L67.2949 51.8835L65.3803 51.0899L76.516 42.5494L78.0736 43.195L77.2751 44.1237L77.3644 44.1607C77.7504 44.0627 78.1553 43.9918 78.5791 43.9479C79.0083 43.9063 79.4467 43.9151 79.8943 43.9744C80.3519 44.0324 80.8106 44.1566 81.2703 44.3472ZM79.4213 45.1615C78.8967 44.944 78.3842 44.8386 77.8839 44.8453C77.3937 44.8507 76.8967 44.9603 76.393 45.1741C75.8946 45.3902 75.3706 45.7026 74.8209 46.1115L74.5909 46.2878C74.0195 46.7261 73.6016 47.1264 73.3373 47.4889C73.0831 47.85 73.0109 48.1769 73.121 48.4695C73.2411 48.7608 73.577 49.0208 74.1286 49.2494C74.5938 49.4422 75.0869 49.5176 75.6082 49.4757C76.1348 49.436 76.6759 49.2926 77.2315 49.0454C77.7871 48.7982 78.339 48.4643 78.8872 48.0439C79.7188 47.4061 80.1915 46.8391 80.3053 46.3429C80.4245 45.849 80.1298 45.4551 79.4213 45.1615ZM91.6222 48.6379C92.6877 49.0795 93.2077 49.6903 93.1824 50.4701C93.1624 51.2522 92.4927 52.1492 91.1734 53.1611C90.3 53.8309 89.4122 54.3329 88.51 54.667C87.6179 54.9998 86.7481 55.1716 85.9007 55.1826C85.0633 55.1923 84.2876 55.0491 83.5737 54.7532C83.1194 54.5649 82.7756 54.3621 82.5425 54.1447C82.3094 53.9273 82.1551 53.707 82.0798 53.4836C82.009 53.2567 81.9901 53.0348 82.023 52.8179L81.9094 52.7708C81.7506 52.9246 81.5682 53.0932 81.3622 53.2768C81.1663 53.459 80.9754 53.6214 80.7895 53.7639L77.6467 56.1743L75.7321 55.3807L86.8678 46.8402L88.4255 47.4858L87.627 48.4145L87.7162 48.4514C88.1023 48.3535 88.5072 48.2826 88.931 48.2387C89.3602 48.197 89.7986 48.2059 90.2461 48.2651C90.7038 48.3231 91.1625 48.4474 91.6222 48.6379ZM89.7731 49.4522C89.2485 49.2348 88.7361 49.1294 88.2358 49.1361C87.7455 49.1414 87.2486 49.251 86.7448 49.4649C86.2465 49.6809 85.7224 49.9934 85.1727 50.4022L84.9428 50.5786C84.3714 51.0168 83.9535 51.4172 83.6892 51.7796C83.4349 52.1408 83.3628 52.4676 83.4728 52.7602C83.5929 53.0515 83.9288 53.3115 84.4805 53.5402C84.9456 53.7329 85.4388 53.8084 85.96 53.7665C86.4867 53.7268 87.0278 53.5833 87.5834 53.3361C88.139 53.0889 88.6909 52.7551 89.2391 52.3346C90.0707 51.6969 90.5433 51.1299 90.6571 50.6337C90.7763 50.1397 90.4816 49.7459 89.7731 49.4522ZM91.4201 57.8409L89.5055 57.0473L100.349 48.7312L102.263 49.5248L91.4201 57.8409ZM103.767 53.8446L96.0525 59.7609L94.146 58.9707L101.86 53.0543L103.767 53.8446ZM105.78 51.1884C106.072 51.3095 106.256 51.4654 106.333 51.6561C106.414 51.8491 106.29 52.0721 105.96 52.3251C105.635 52.5745 105.295 52.7078 104.939 52.725C104.593 52.7409 104.274 52.6884 103.982 52.5673C103.679 52.4418 103.49 52.2836 103.414 52.0929C103.348 51.9008 103.477 51.68 103.802 51.4306C104.132 51.1776 104.467 51.0421 104.807 51.024C105.153 51.0081 105.477 51.0629 105.78 51.1884ZM102.265 62.5008C101.416 62.1488 100.822 61.7353 100.484 61.2601C100.145 60.785 100.101 60.2534 100.351 59.6655C100.601 59.0776 101.177 58.438 102.078 57.7468C103.016 57.027 103.967 56.5154 104.929 56.2117C105.892 55.9081 106.839 55.7821 107.771 55.8338C108.709 55.8877 109.6 56.0895 110.444 56.4393C110.979 56.6612 111.417 56.8975 111.757 57.1481C112.106 57.3973 112.368 57.6346 112.54 57.8599L110.663 58.6293C110.449 58.4035 110.208 58.1886 109.941 57.9845C109.674 57.7805 109.381 57.6123 109.062 57.4801C108.537 57.2626 107.999 57.1576 107.448 57.1651C106.902 57.1749 106.345 57.2953 105.777 57.5264C105.214 57.7598 104.64 58.1009 104.055 58.5499C103.488 58.9845 103.096 59.3874 102.879 59.7584C102.667 60.1259 102.631 60.4568 102.772 60.7513C102.918 61.0422 103.239 61.2907 103.737 61.497C104.229 61.701 104.721 61.8445 105.212 61.9275C105.704 62.0105 106.204 62.0614 106.713 62.0802L105.291 63.1705C104.783 63.1575 104.295 63.1006 103.827 62.9998C103.354 62.9025 102.833 62.7362 102.265 62.5008ZM118.427 59.7481C119.562 60.2189 120.204 60.7399 120.35 61.3111C120.502 61.8846 120.121 62.5223 119.206 63.2242L114.014 67.2058L112.659 66.6443L113.388 65.6539L113.323 65.627C112.79 65.7354 112.298 65.803 111.847 65.8299C111.395 65.8568 110.947 65.8301 110.501 65.7498C110.057 65.6754 109.58 65.5328 109.072 65.322C108.537 65.1001 108.142 64.8376 107.887 64.5344C107.637 64.2278 107.564 63.8904 107.67 63.5223C107.775 63.1542 108.094 62.7652 108.628 62.3555C109.423 61.7462 110.363 61.4307 111.45 61.409C112.542 61.3895 113.806 61.6529 115.243 62.1992L116.85 62.8075L117.254 62.4975C117.788 62.0877 118.023 61.735 117.959 61.4394C117.9 61.146 117.608 60.8906 117.083 60.6731C116.634 60.4871 116.143 60.3494 115.61 60.26C115.076 60.1707 114.528 60.1054 113.965 60.0642L114.506 58.9215C115.143 58.9498 115.804 59.0314 116.486 59.1661C117.174 59.303 117.821 59.497 118.427 59.7481ZM115.81 63.5951L114.615 63.141C113.635 62.7678 112.828 62.5978 112.193 62.6311C111.558 62.6643 111.023 62.8484 110.586 63.1833C110.205 63.4755 110.059 63.7442 110.147 63.9894C110.24 64.2311 110.503 64.4416 110.936 64.6209C111.596 64.8944 112.302 64.9979 113.056 64.9314C113.819 64.8636 114.514 64.5892 115.141 64.1082L115.81 63.5951ZM121.21 68.789C121.459 68.8921 121.724 68.9799 122.004 69.0522C122.29 69.1211 122.56 69.1756 122.816 69.2157L121.576 70.1671C121.286 70.1402 120.945 70.0787 120.554 69.9824C120.163 69.8862 119.786 69.763 119.424 69.6128C118.915 69.4021 118.53 69.1574 118.269 68.8788C118.012 68.5967 117.943 68.2691 118.063 67.8961C118.183 67.5231 118.559 67.0943 119.19 66.6098L123.337 63.4298L122.112 62.922L122.843 62.3608L124.736 62.462L127.012 61.4543L128.213 61.9519L126.499 63.2667L129.07 64.3327L127.823 65.2893L125.251 64.2234L121.126 67.3873C120.736 67.6866 120.559 67.9564 120.596 68.1966C120.632 68.4369 120.837 68.6343 121.21 68.789ZM132.875 65.9097L125.161 71.8261L123.255 71.0359L130.969 65.1195L132.875 65.9097ZM134.889 63.2536C135.181 63.3747 135.365 63.5306 135.441 63.7213C135.523 63.9143 135.399 64.1373 135.069 64.3903C134.744 64.6397 134.403 64.773 134.047 64.7902C133.702 64.8061 133.383 64.7535 133.091 64.6325C132.788 64.5069 132.598 64.3488 132.522 64.158C132.456 63.966 132.586 63.7452 132.911 63.4958C133.241 63.2428 133.576 63.1073 133.916 63.0891C134.262 63.0732 134.586 63.1281 134.889 63.2536ZM139.72 73.2832C139.079 73.7749 138.412 74.171 137.721 74.4715C137.029 74.7721 136.324 74.9768 135.608 75.0858C134.895 75.1912 134.186 75.2047 133.48 75.1262C132.779 75.0441 132.099 74.8664 131.439 74.5929C130.822 74.3373 130.345 74.0353 130.008 73.687C129.675 73.3351 129.489 72.9506 129.45 72.5336C129.421 72.1152 129.552 71.6728 129.843 71.2064C130.135 70.74 130.601 70.2609 131.242 69.7692C132.092 69.1172 132.983 68.6355 133.914 68.3243C134.854 68.0117 135.799 67.8683 136.749 67.8941C137.698 67.9199 138.614 68.1155 139.495 68.4809C140.323 68.8239 140.897 69.2459 141.219 69.7469C141.541 70.2479 141.582 70.8004 141.345 71.4044C141.107 72.0085 140.566 72.6347 139.72 73.2832ZM133.205 70.583C132.643 71.0141 132.241 71.4154 131.998 71.7868C131.761 72.1605 131.703 72.4988 131.825 72.8016C131.951 73.101 132.279 73.3605 132.809 73.5802C133.339 73.7999 133.876 73.899 134.421 73.8777C134.97 73.8528 135.523 73.7196 136.079 73.4782C136.635 73.2368 137.195 72.9005 137.757 72.4694C138.319 72.0383 138.717 71.6406 138.95 71.2763C139.188 70.9084 139.242 70.5766 139.111 70.2808C138.984 69.9815 138.654 69.7209 138.118 69.4989C137.328 69.1716 136.525 69.1075 135.707 69.3065C134.89 69.5054 134.056 69.9309 133.205 70.583ZM150.577 73.0743C151.589 73.4935 152.15 73.9925 152.262 74.5712C152.384 75.1487 151.95 75.8168 150.961 76.5758L145.93 80.4345L144.023 79.6443L148.748 76.0207C149.347 75.5611 149.652 75.1578 149.663 74.811C149.678 74.4606 149.386 74.161 148.785 73.9121C147.914 73.5512 147.079 73.4765 146.278 73.688C145.483 73.9017 144.649 74.3435 143.775 75.0134L139.942 77.9529L138.036 77.1626L145.75 71.2463L147.235 71.8616L146.457 72.7743L146.563 72.818C147.027 72.692 147.488 72.6226 147.947 72.6095C148.415 72.5952 148.872 72.6282 149.317 72.7084C149.768 72.7909 150.188 72.9129 150.577 73.0743Z" fill="#160042"/>
</g>
<defs>
<filter id="filter0_d_1403_4925" x="0.0136719" y="0" width="214.771" height="120.048" filterUnits="userSpaceOnUse" color-interpolation-filters="sRGB">
<feFlood flood-opacity="0" result="BackgroundImageFix"/>
<feColorMatrix in="SourceAlpha" type="matrix" values="0 0 0 0 0 0 0 0 0 0 0 0 0 0 0 0 0 0 127 0" result="hardAlpha"/>
<feOffset dy="4.24508"/>
<feComposite in2="hardAlpha" operator="out"/>
<feColorMatrix type="matrix" values="0 0 0 0 0.278431 0 0 0 0 0.537255 0 0 0 0 0.784314 0 0 0 1 0"/>
<feBlend mode="normal" in2="BackgroundImageFix" result="effect1_dropShadow_1403_4925"/>
<feBlend mode="normal" in="SourceGraphic" in2="effect1_dropShadow_1403_4925" result="shape"/>
</filter>
</defs>
</svg>
