<svg width="249" height="132" viewBox="0 0 249 132" fill="none" xmlns="http://www.w3.org/2000/svg">
<rect x="248.404" y="127.383" width="4.83066" height="108.972" rx="2.41533" transform="rotate(114.44 248.404 127.383)" fill="white"/>
<g filter="url(#filter0_d_2591_6719)">
<rect width="150.234" height="95.7621" rx="5.3655" transform="matrix(0.923789 0.382901 -0.793497 0.608574 75.9863 0)" fill="white" shape-rendering="crispEdges"/>
<path d="M70.1341 42.8895C68.9867 43.7696 67.7785 44.4022 66.5098 44.7874C65.2456 45.1691 63.9452 45.3134 62.6085 45.2204C61.2764 45.1238 59.9424 44.7987 58.6065 44.245L55.3128 42.8797L65.5007 35.066L69.1515 36.5792C70.3792 37.0881 71.2488 37.6736 71.7602 38.3356C72.2763 38.9941 72.4061 39.7093 72.1496 40.4811C71.8977 41.2494 71.2259 42.0522 70.1341 42.8895ZM68.0572 42.0863C68.8934 41.4449 69.4268 40.8537 69.6574 40.3126C69.8934 39.7738 69.8441 39.2813 69.5093 38.8352C69.1846 38.3877 68.5895 37.9847 67.7242 37.626L66.0611 36.9366L58.6605 42.6125L60.0397 43.1842C61.4729 43.7782 62.8574 43.9816 64.1931 43.7943C65.5287 43.6069 66.8168 43.0376 68.0572 42.0863ZM78.6848 43.2805C79.8206 43.7513 80.4618 44.2723 80.6085 44.8435C80.7605 45.417 80.379 46.0547 79.4638 46.7566L74.2722 50.7382L72.9174 50.1767L73.6464 49.1863L73.5815 49.1594C73.0486 49.2678 72.5563 49.3354 72.1047 49.3623C71.6531 49.3892 71.2047 49.3625 70.7594 49.2822C70.315 49.2077 69.8385 49.0652 69.3301 48.8544C68.7947 48.6325 68.3997 48.37 68.145 48.0668C67.8951 47.7602 67.8226 47.4228 67.9276 47.0547C68.0327 46.6865 68.3523 46.2976 68.8866 45.8879C69.681 45.2786 70.6214 44.9631 71.7078 44.9414C72.7996 44.9219 74.0641 45.1853 75.5013 45.7316L77.1078 46.3399L77.5119 46.0299C78.0462 45.6201 78.2811 45.2674 78.2167 44.9718C78.1577 44.6784 77.8659 44.423 77.3412 44.2055C76.8923 44.0195 76.4012 43.8817 75.8678 43.7924C75.3345 43.7031 74.7864 43.6378 74.2236 43.5966L74.7638 42.4539C75.4016 42.4822 76.0618 42.5638 76.7443 42.6985C77.4322 42.8354 78.0791 43.0294 78.6848 43.2805ZM76.0683 47.1275L74.8734 46.6733C73.8936 46.3002 73.0863 46.1302 72.4514 46.1634C71.8165 46.1967 71.2807 46.3808 70.8441 46.7157C70.4631 47.0079 70.3169 47.2766 70.4054 47.5218C70.4985 47.7635 70.7614 47.974 71.1941 48.1533C71.8539 48.4268 72.5604 48.5303 73.3137 48.4638C74.0769 48.396 74.7722 48.1216 75.3993 47.6406L76.0683 47.1275ZM81.4684 52.3214C81.7172 52.4245 81.9819 52.5123 82.2624 52.5846C82.5476 52.6534 82.8182 52.7079 83.074 52.7481L81.8336 53.6995C81.5437 53.6726 81.2032 53.6111 80.8122 53.5148C80.4211 53.4186 80.0444 53.2954 79.682 53.1452C79.1736 52.9344 78.7886 52.6898 78.527 52.4112C78.27 52.1291 78.2014 51.8015 78.3211 51.4285C78.4409 51.0555 78.8166 50.6267 79.4484 50.1422L83.5947 46.9622L82.3697 46.4544L83.1014 45.8932L84.994 45.9944L87.2702 44.9867L88.4709 45.4843L86.7567 46.7991L89.3284 47.8651L88.0811 48.8217L85.5093 47.7558L81.384 50.9197C80.9937 51.219 80.8169 51.4888 80.8536 51.729C80.8903 51.9692 81.0952 52.1667 81.4684 52.3214ZM94.8941 49.9991C96.0298 50.4698 96.6711 50.9908 96.8177 51.5621C96.9698 52.1355 96.5882 52.7732 95.673 53.4751L90.4815 57.4568L89.1267 56.8952L89.8557 55.9048L89.7908 55.8779C89.2578 55.9864 88.7655 56.054 88.3139 56.0809C87.8623 56.1077 87.4139 56.081 86.9687 56.0008C86.5242 55.9263 86.0478 55.7837 85.5394 55.573C85.0039 55.3511 84.6089 55.0885 84.3543 54.7854C84.1043 54.4787 84.0319 54.1413 84.1369 53.7732C84.2419 53.4051 84.5616 53.0162 85.0958 52.6064C85.8903 51.9972 86.8307 51.6817 87.9171 51.66C89.0089 51.6405 90.2734 51.9039 91.7106 52.4502L93.317 53.0584L93.7212 52.7485C94.2555 52.3387 94.4904 51.986 94.4259 51.6904C94.3669 51.397 94.0751 51.1415 93.5505 50.9241C93.1016 50.738 92.6105 50.6003 92.0771 50.511C91.5437 50.4216 90.9956 50.3564 90.4328 50.3152L90.973 49.1724C91.6109 49.2008 92.2711 49.2823 92.9536 49.417C93.6415 49.554 94.2883 49.748 94.8941 49.9991ZM92.2776 53.8461L91.0826 53.3919C90.1028 53.0188 89.2955 52.8488 88.6607 52.882C88.0258 52.9153 87.49 53.0993 87.0533 53.4343C86.6724 53.7264 86.5261 53.9951 86.6146 54.2404C86.7077 54.4821 86.9706 54.6926 87.4033 54.8719C88.0632 55.1454 88.7697 55.2489 89.5229 55.1824C90.2862 55.1146 90.9814 54.8401 91.6086 54.3591L92.2776 53.8461ZM105.704 61.165C105.198 61.5534 104.627 61.8218 103.992 61.9702C103.357 62.1186 102.673 62.1479 101.94 62.0582C101.218 61.9672 100.459 61.7569 99.6637 61.4274C99.0363 61.1673 98.5349 60.9129 98.1596 60.664C97.785 60.4209 97.4766 60.1559 97.2343 59.8688L98.6489 58.7839C98.9043 59.0928 99.2343 59.4052 99.6389 59.7211C100.049 60.0393 100.492 60.297 100.968 60.4943C101.595 60.7543 102.13 60.8774 102.574 60.8634C103.021 60.8459 103.387 60.7285 103.67 60.5111C103.837 60.3829 103.929 60.2453 103.946 60.0985C103.972 59.9503 103.904 59.76 103.74 59.5276C103.587 59.2938 103.321 58.9804 102.942 58.5874C102.569 58.2023 102.285 57.8543 102.091 57.5432C101.897 57.2322 101.837 56.9301 101.911 56.6369C101.989 56.3402 102.245 56.0261 102.677 55.6948C103.36 55.171 104.191 54.9038 105.172 54.893C106.162 54.8809 107.177 55.0901 108.215 55.5205C108.767 55.7492 109.237 56.0018 109.626 56.2784C110.026 56.5537 110.37 56.8583 110.659 57.1923L108.826 57.8894C108.573 57.6037 108.29 57.3383 107.977 57.0931C107.673 56.8465 107.311 56.6359 106.889 56.461C106.397 56.257 105.956 56.1511 105.566 56.1432C105.182 56.1376 104.869 56.2275 104.627 56.4128C104.446 56.5517 104.355 56.6951 104.354 56.8428C104.353 56.9906 104.441 57.1753 104.619 57.3971C104.802 57.6211 105.073 57.9175 105.434 58.2865C105.793 58.6438 106.069 58.978 106.263 59.289C106.468 59.5988 106.536 59.9042 106.468 60.2055C106.4 60.5067 106.146 60.8265 105.704 61.165ZM117.388 64.0318C116.747 64.5235 116.081 64.9196 115.389 65.2202C114.697 65.5207 113.993 65.7255 113.276 65.8345C112.563 65.9399 111.854 65.9533 111.148 65.8748C110.447 65.7928 109.767 65.615 109.107 65.3415C108.49 65.0859 108.013 64.784 107.676 64.4356C107.344 64.0837 107.157 63.6992 107.118 63.2822C107.089 62.8639 107.22 62.4215 107.511 61.955C107.803 61.4886 108.269 61.0095 108.91 60.5179C109.76 59.8658 110.651 59.3842 111.582 59.0729C112.522 58.7603 113.468 58.6169 114.417 58.6427C115.366 58.6685 116.282 58.8641 117.164 59.2295C117.991 59.5725 118.566 59.9945 118.887 60.4955C119.209 60.9965 119.251 61.5491 119.013 62.1531C118.775 62.7571 118.234 63.3834 117.388 64.0318ZM110.874 61.3316C110.311 61.7627 109.909 62.164 109.666 62.5354C109.429 62.9091 109.371 63.2474 109.493 63.5503C109.619 63.8496 109.947 64.1091 110.477 64.3288C111.007 64.5485 111.545 64.6477 112.089 64.6263C112.638 64.6014 113.191 64.4683 113.747 64.2269C114.303 63.9854 114.863 63.6492 115.425 63.2181C115.987 62.7869 116.385 62.3892 116.618 62.0249C116.856 61.6571 116.91 61.3252 116.779 61.0295C116.652 60.7301 116.322 60.4695 115.786 60.2476C114.997 59.9203 114.193 59.8561 113.375 60.0551C112.558 60.2541 111.724 60.6796 110.874 61.3316ZM131.247 65.2399L123.533 71.1562L122.032 70.5342L122.811 69.6302L122.705 69.5865C122.251 69.7111 121.79 69.7806 121.321 69.795C120.857 69.8057 120.405 69.7692 119.964 69.6854C119.519 69.6051 119.099 69.4832 118.704 69.3195C118.028 69.0393 117.547 68.7246 117.261 68.3754C116.985 68.025 116.926 67.6385 117.085 67.216C117.245 66.7935 117.652 66.3311 118.307 65.8287L123.345 61.9646L125.26 62.7582L120.528 66.3872C119.929 66.8468 119.621 67.2489 119.605 67.5935C119.594 67.9404 119.889 68.2382 120.49 68.487C121.068 68.7269 121.63 68.8391 122.175 68.8235C122.72 68.808 123.263 68.6761 123.803 68.428C124.349 68.1821 124.912 67.8365 125.493 67.3911L129.332 64.4463L131.247 65.2399ZM138.679 68.1473C138.83 68.2101 138.988 68.2838 139.152 68.3684C139.317 68.4531 139.453 68.5313 139.559 68.6029L137.848 69.7047C137.762 69.6362 137.642 69.5619 137.488 69.4817C137.34 69.4038 137.201 69.3379 137.071 69.2841C136.731 69.1429 136.357 69.0458 135.951 68.9928C135.55 68.9363 135.133 68.9336 134.7 68.9846C134.272 69.032 133.846 69.1382 133.422 69.303C132.999 69.4679 132.597 69.6964 132.216 69.9886L128.181 73.083L126.267 72.2895L133.981 66.3731L135.474 66.9918L134.374 68.1416L134.464 68.1786C134.916 68.0423 135.389 67.9419 135.882 67.8771C136.374 67.8124 136.858 67.799 137.334 67.8369C137.819 67.8734 138.267 67.9769 138.679 68.1473ZM136.917 76.8687C136.068 76.5167 135.474 76.1032 135.136 75.628C134.797 75.1529 134.753 74.6213 135.003 74.0334C135.253 73.4455 135.829 72.8059 136.73 72.1147C137.668 71.3949 138.619 70.8833 139.581 70.5796C140.544 70.276 141.491 70.15 142.423 70.2017C143.361 70.2556 144.252 70.4574 145.096 70.8071C145.631 71.0291 146.069 71.2654 146.409 71.516C146.758 71.7652 147.02 72.0025 147.192 72.2278L145.314 72.9972C145.101 72.7714 144.86 72.5565 144.593 72.3524C144.326 72.1484 144.033 71.9802 143.714 71.8479C143.189 71.6305 142.651 71.5255 142.1 71.533C141.554 71.5427 140.997 71.6632 140.429 71.8943C139.866 72.1277 139.292 72.4688 138.707 72.9177C138.14 73.3524 137.748 73.7553 137.531 74.1263C137.319 74.4938 137.283 74.8247 137.424 75.1192C137.569 75.4101 137.891 75.6586 138.389 75.8649C138.881 76.0689 139.373 76.2124 139.864 76.2954C140.356 76.3784 140.856 76.4293 141.365 76.4481L139.943 77.5384C139.435 77.5254 138.947 77.4685 138.479 77.3677C138.006 77.2704 137.485 77.1041 136.917 76.8687ZM153.135 74.1395C153.936 74.4713 154.481 74.8647 154.771 75.3197C155.061 75.7746 155.1 76.2655 154.888 76.7924C154.676 77.3192 154.207 77.8605 153.483 78.4164L152.605 79.0898L146.609 76.6048C145.883 77.1874 145.54 77.7256 145.579 78.2194C145.624 78.7155 146.049 79.1305 146.855 79.4645C147.428 79.7021 147.988 79.8795 148.536 79.9965C149.093 80.1123 149.708 80.1997 150.38 80.259L149.049 81.2798C148.419 81.2327 147.83 81.1448 147.281 81.0161C146.732 80.8875 146.133 80.6886 145.484 80.4196C144.603 80.0542 143.973 79.6203 143.595 79.1178C143.227 78.6141 143.147 78.0593 143.353 77.4534C143.566 76.8498 144.106 76.2148 144.975 75.5485C145.839 74.8858 146.743 74.3935 147.688 74.0715C148.633 73.7496 149.571 73.5952 150.504 73.6085C151.436 73.6218 152.313 73.7988 153.135 74.1395ZM151.902 75.0855C151.302 74.8367 150.648 74.7632 149.94 74.865C149.238 74.9691 148.531 75.2554 147.821 75.7237L151.909 77.4185C152.29 77.1205 152.555 76.8273 152.707 76.5387C152.863 76.2524 152.879 75.9846 152.754 75.7352C152.635 75.4882 152.351 75.2716 151.902 75.0855Z" fill="#160042"/>
</g>
<defs>
<filter id="filter0_d_2591_6719" x="0" y="0" width="214.771" height="120.048" filterUnits="userSpaceOnUse" color-interpolation-filters="sRGB">
<feFlood flood-opacity="0" result="BackgroundImageFix"/>
<feColorMatrix in="SourceAlpha" type="matrix" values="0 0 0 0 0 0 0 0 0 0 0 0 0 0 0 0 0 0 127 0" result="hardAlpha"/>
<feOffset dy="4.24508"/>
<feComposite in2="hardAlpha" operator="out"/>
<feColorMatrix type="matrix" values="0 0 0 0 0.933351 0 0 0 0 0.940289 0 0 0 0 0.974983 0 0 0 1 0"/>
<feBlend mode="normal" in2="BackgroundImageFix" result="effect1_dropShadow_2591_6719"/>
<feBlend mode="normal" in="SourceGraphic" in2="effect1_dropShadow_2591_6719" result="shape"/>
</filter>
</defs>
</svg>
