<svg width="632" height="305" viewBox="0 0 632 305" fill="none" xmlns="http://www.w3.org/2000/svg">
<rect x="459.207" y="222.086" width="4.83066" height="330.215" rx="2.41533" transform="rotate(114.44 459.207 222.086)" fill="white"/>
<g filter="url(#filter0_d_2591_6722)">
<rect width="150.234" height="95.7621" rx="5.3655" transform="matrix(0.923789 0.382901 -0.793497 0.608574 75.9863 0)" fill="white" shape-rendering="crispEdges"/>
<path d="M80.3475 47.1231C79.2001 48.0031 77.9919 48.6358 76.7232 49.021C75.4591 49.4026 74.1586 49.5469 72.8219 49.4539C71.4898 49.3573 70.1558 49.0322 68.82 48.4785L65.5262 47.1132L75.7141 39.2996L79.3649 40.8128C80.5926 41.3216 81.4622 41.9071 81.9737 42.5692C82.4898 43.2277 82.6195 43.9428 82.363 44.7147C82.1111 45.483 81.4393 46.2857 80.3475 47.1231ZM78.2706 46.3198C79.1068 45.6785 79.6402 45.0872 79.8708 44.5462C80.1069 44.0073 80.0575 43.5148 79.7227 43.0687C79.398 42.6213 78.8029 42.2182 77.9376 41.8595L76.2745 41.1702L68.8739 46.846L70.2531 47.4177C71.6863 48.0118 73.0708 48.2151 74.4065 48.0278C75.7421 47.8405 77.0302 47.2711 78.2706 46.3198ZM88.8982 47.514C90.034 47.9848 90.6752 48.5058 90.8219 49.077C90.974 49.6505 90.5924 50.2882 89.6772 50.9901L84.4857 54.9718L83.1308 54.4102L83.8598 53.4198L83.7949 53.3929C83.262 53.5013 82.7697 53.569 82.3181 53.5958C81.8665 53.6227 81.4181 53.596 80.9728 53.5157C80.5284 53.4413 80.0519 53.2987 79.5435 53.088C79.0081 52.866 78.6131 52.6035 78.3585 52.3004C78.1085 51.9937 78.036 51.6563 78.1411 51.2882C78.2461 50.9201 78.5657 50.5311 79.1 50.1214C79.8944 49.5121 80.8348 49.1966 81.9212 49.1749C83.013 49.1554 84.2776 49.4189 85.7148 49.9652L87.3212 50.5734L87.7254 50.2634C88.2596 49.8537 88.4945 49.501 88.4301 49.2053C88.3711 48.9119 88.0793 48.6565 87.5546 48.439C87.1057 48.253 86.6146 48.1153 86.0813 48.0259C85.5479 47.9366 84.9998 47.8713 84.437 47.8301L84.9772 46.6874C85.615 46.7158 86.2752 46.7973 86.9577 46.932C87.6456 47.0689 88.2925 47.2629 88.8982 47.514ZM86.2817 51.361L85.0868 50.9069C84.107 50.5337 83.2997 50.3637 82.6648 50.397C82.0299 50.4302 81.4942 50.6143 81.0575 50.9492C80.6765 51.2414 80.5303 51.5101 80.6188 51.7553C80.7119 51.997 80.9748 52.2075 81.4075 52.3869C82.0673 52.6604 82.7738 52.7638 83.5271 52.6973C84.2904 52.6295 84.9856 52.3551 85.6127 51.8741L86.2817 51.361ZM91.6818 56.5549C91.9306 56.658 92.1953 56.7458 92.4758 56.8182C92.761 56.887 93.0316 56.9415 93.2874 56.9817L92.047 57.933C91.7571 57.9061 91.4166 57.8446 91.0256 57.7484C90.6345 57.6521 90.2578 57.5289 89.8954 57.3787C89.387 57.168 89.002 56.9233 88.7404 56.6447C88.4834 56.3626 88.4148 56.035 88.5345 55.662C88.6543 55.289 89.03 54.8603 89.6619 54.3757L93.8081 51.1957L92.5831 50.6879L93.3148 50.1268L95.2074 50.2279L97.4837 49.2202L98.6843 49.7179L96.9701 51.0326L99.5418 52.0986L98.2945 53.0553L95.7227 51.9893L91.5974 55.1532C91.2071 55.4525 91.0304 55.7223 91.067 55.9625C91.1037 56.2028 91.3087 56.4002 91.6818 56.5549ZM105.107 54.2326C106.243 54.7034 106.884 55.2244 107.031 55.7956C107.183 56.3691 106.802 57.0068 105.886 57.7087L100.695 61.6903L99.3401 61.1288L100.069 60.1384L100.004 60.1115C99.4712 60.2199 98.9789 60.2875 98.5273 60.3144C98.0757 60.3413 97.6273 60.3146 97.1821 60.2343C96.7376 60.1599 96.2612 60.0173 95.7528 59.8065C95.2174 59.5846 94.8223 59.3221 94.5677 59.0189C94.3177 58.7123 94.2453 58.3749 94.3503 58.0068C94.4554 57.6386 94.775 57.2497 95.3093 56.84C96.1037 56.2307 97.0441 55.9152 98.1305 55.8935C99.2223 55.874 100.487 56.1374 101.924 56.6837L103.53 57.292L103.935 56.982C104.469 56.5722 104.704 56.2195 104.639 55.9239C104.58 55.6305 104.289 55.3751 103.764 55.1576C103.315 54.9716 102.824 54.8338 102.291 54.7445C101.757 54.6552 101.209 54.5899 100.646 54.5487L101.186 53.406C101.824 53.4343 102.484 53.5159 103.167 53.6506C103.855 53.7875 104.502 53.9815 105.107 54.2326ZM102.491 58.0796L101.296 57.6255C100.316 57.2523 99.5089 57.0823 98.8741 57.1156C98.2392 57.1488 97.7034 57.3329 97.2667 57.6678C96.8858 57.96 96.7395 58.2287 96.828 58.4739C96.9211 58.7156 97.184 58.9261 97.6167 59.1054C98.2766 59.3789 98.9831 59.4824 99.7363 59.4159C100.5 59.3481 101.195 59.0737 101.822 58.5927L102.491 58.0796ZM109.595 65.3792L107.68 64.5856L118.523 56.2695L120.438 57.0631L109.595 65.3792ZM123.702 61.9398C124.838 62.4106 125.479 62.9316 125.626 63.5028C125.778 64.0763 125.396 64.714 124.481 65.4159L119.289 69.3975L117.934 68.836L118.663 67.8456L118.599 67.8187C118.066 67.9271 117.573 67.9947 117.122 68.0216C116.67 68.0485 116.222 68.0218 115.776 67.9415C115.332 67.867 114.856 67.7245 114.347 67.5137C113.812 67.2918 113.417 67.0293 113.162 66.7261C112.912 66.4195 112.84 66.0821 112.945 65.7139C113.05 65.3458 113.369 64.9569 113.904 64.5472C114.698 63.9379 115.638 63.6224 116.725 63.6007C117.817 63.5812 119.081 63.8446 120.518 64.3909L122.125 64.9992L122.529 64.6892C123.063 64.2794 123.298 63.9267 123.234 63.6311C123.175 63.3377 122.883 63.0823 122.358 62.8648C121.909 62.6787 121.418 62.541 120.885 62.4517C120.352 62.3624 119.803 62.2971 119.241 62.2559L119.781 61.1132C120.419 61.1415 121.079 61.2231 121.761 61.3578C122.449 61.4947 123.096 61.6887 123.702 61.9398ZM121.085 65.7868L119.89 65.3326C118.911 64.9595 118.103 64.7895 117.468 64.8227C116.834 64.856 116.298 65.0401 115.861 65.375C115.48 65.6672 115.334 65.9359 115.422 66.1811C115.516 66.4228 115.778 66.6333 116.211 66.8126C116.871 67.0861 117.577 67.1896 118.331 67.1231C119.094 67.0553 119.789 66.7809 120.416 66.2999L121.085 65.7868ZM134.708 62.978L129.468 66.9971C129.231 67.1788 128.96 67.3738 128.655 67.5822C128.354 67.787 128.07 67.9794 127.802 68.1592L127.843 68.1761C128.146 68.1096 128.504 68.033 128.917 67.9463C129.336 67.8618 129.716 67.7941 130.057 67.7434L135.335 66.9346L137.526 67.8425L130.615 68.8968L130.047 73.8564L127.808 72.9283L128.322 69.1405L126.464 69.3006L123.865 71.2941L121.958 70.5038L132.801 62.1878L134.708 62.978ZM142.921 69.9059C143.721 70.2377 144.267 70.6311 144.557 71.086C144.846 71.541 144.885 72.0319 144.673 72.5588C144.461 73.0856 143.993 73.6269 143.268 74.1828L142.39 74.8562L136.395 72.3712C135.669 72.9538 135.325 73.492 135.364 73.9858C135.409 74.4818 135.834 74.8969 136.64 75.2309C137.214 75.4685 137.774 75.6459 138.321 75.7629C138.878 75.8786 139.493 75.9661 140.166 76.0254L138.835 77.0462C138.205 76.9991 137.615 76.9112 137.067 76.7825C136.518 76.6539 135.919 76.455 135.27 76.186C134.388 75.8206 133.759 75.3867 133.381 74.8842C133.013 74.3805 132.932 73.8256 133.139 73.2198C133.351 72.6162 133.891 71.9812 134.76 71.3149C135.624 70.6522 136.529 70.1599 137.473 69.8379C138.418 69.5159 139.357 69.3616 140.289 69.3749C141.222 69.3881 142.099 69.5652 142.921 69.9059ZM141.688 70.8519C141.087 70.6031 140.433 70.5296 139.726 70.6314C139.023 70.7355 138.317 71.0217 137.606 71.4901L141.695 73.1849C142.075 72.8869 142.341 72.5936 142.492 72.3051C142.649 72.0188 142.665 71.7509 142.54 71.5016C142.421 71.2545 142.136 71.038 141.688 70.8519Z" fill="#160042"/>
</g>
<g filter="url(#filter1_d_2591_6722)">
<rect width="150.234" height="95.7621" rx="5.3655" transform="matrix(0.923789 0.382901 -0.793497 0.608574 492.986 186)" fill="white" shape-rendering="crispEdges"/>
<path d="M524.524 234.545C523.377 235.425 522.169 236.057 520.9 236.442C519.636 236.824 518.335 236.968 516.999 236.875C515.666 236.779 514.333 236.454 512.997 235.9L509.703 234.535L519.891 226.721L523.542 228.234C524.769 228.743 525.639 229.329 526.15 229.991C526.666 230.649 526.796 231.364 526.54 232.136C526.288 232.904 525.616 233.707 524.524 234.545ZM522.447 233.741C523.283 233.1 523.817 232.509 524.047 231.968C524.284 231.429 524.234 230.936 523.899 230.49C523.575 230.043 522.98 229.64 522.114 229.281L520.451 228.592L513.051 234.268L514.43 234.839C515.863 235.433 517.247 235.637 518.583 235.449C519.919 235.262 521.207 234.693 522.447 233.741ZM533.075 234.936C534.211 235.406 534.852 235.927 534.999 236.499C535.151 237.072 534.769 237.71 533.854 238.412L528.662 242.393L527.307 241.832L528.036 240.841L527.972 240.814C527.439 240.923 526.946 240.99 526.495 241.017C526.043 241.044 525.595 241.017 525.149 240.937C524.705 240.863 524.229 240.72 523.72 240.509C523.185 240.288 522.79 240.025 522.535 239.722C522.285 239.415 522.213 239.078 522.318 238.71C522.423 238.342 522.742 237.953 523.277 237.543C524.071 236.934 525.011 236.618 526.098 236.596C527.19 236.577 528.454 236.84 529.891 237.387L531.498 237.995L531.902 237.685C532.436 237.275 532.671 236.922 532.607 236.627C532.548 236.333 532.256 236.078 531.731 235.861C531.282 235.674 530.791 235.537 530.258 235.447C529.725 235.358 529.176 235.293 528.614 235.252L529.154 234.109C529.792 234.137 530.452 234.219 531.134 234.353C531.822 234.49 532.469 234.684 533.075 234.936ZM530.458 238.782L529.263 238.328C528.284 237.955 527.476 237.785 526.841 237.818C526.207 237.852 525.671 238.036 525.234 238.371C524.853 238.663 524.707 238.932 524.795 239.177C524.889 239.418 525.151 239.629 525.584 239.808C526.244 240.082 526.951 240.185 527.704 240.119C528.467 240.051 529.162 239.777 529.789 239.296L530.458 238.782ZM535.859 243.976C536.107 244.08 536.372 244.167 536.653 244.24C536.938 244.308 537.208 244.363 537.464 244.403L536.224 245.354C535.934 245.328 535.593 245.266 535.202 245.17C534.811 245.074 534.434 244.95 534.072 244.8C533.564 244.589 533.179 244.345 532.917 244.066C532.66 243.784 532.591 243.456 532.711 243.084C532.831 242.711 533.207 242.282 533.839 241.797L537.985 238.617L536.76 238.109L537.491 237.548L539.384 237.649L541.66 236.642L542.861 237.139L541.147 238.454L543.718 239.52L542.471 240.477L539.899 239.411L535.774 242.575C535.384 242.874 535.207 243.144 535.244 243.384C535.28 243.624 535.485 243.822 535.859 243.976ZM549.284 241.654C550.42 242.125 551.061 242.646 551.208 243.217C551.36 243.791 550.978 244.428 550.063 245.13L544.872 249.112L543.517 248.55L544.246 247.56L544.181 247.533C543.648 247.641 543.156 247.709 542.704 247.736C542.252 247.763 541.804 247.736 541.359 247.656C540.914 247.581 540.438 247.439 539.929 247.228C539.394 247.006 538.999 246.744 538.744 246.44C538.494 246.134 538.422 245.796 538.527 245.428C538.632 245.06 538.952 244.671 539.486 244.261C540.28 243.652 541.221 243.337 542.307 243.315C543.399 243.296 544.663 243.559 546.101 244.105L547.707 244.713L548.111 244.403C548.646 243.994 548.88 243.641 548.816 243.345C548.757 243.052 548.465 242.797 547.941 242.579C547.492 242.393 547.001 242.255 546.467 242.166C545.934 242.077 545.386 242.011 544.823 241.97L545.363 240.827C546.001 240.856 546.661 240.937 547.344 241.072C548.032 241.209 548.678 241.403 549.284 241.654ZM546.668 245.501L545.473 245.047C544.493 244.674 543.686 244.504 543.051 244.537C542.416 244.57 541.88 244.754 541.443 245.089C541.062 245.381 540.916 245.65 541.005 245.895C541.098 246.137 541.361 246.348 541.793 246.527C542.453 246.8 543.16 246.904 543.913 246.837C544.676 246.77 545.371 246.495 545.999 246.014L546.668 245.501ZM474.776 239.737L477.229 236.514C477.352 236.356 477.501 236.165 477.676 235.941C477.851 235.717 478.033 235.488 478.222 235.254C478.416 235.016 478.594 234.796 478.757 234.594C478.925 234.395 479.056 234.241 479.149 234.131L479.084 234.104C478.931 234.189 478.711 234.307 478.424 234.457C478.137 234.607 477.821 234.769 477.476 234.944C477.131 235.12 476.792 235.29 476.461 235.454C476.135 235.621 475.852 235.762 475.612 235.876L470.858 238.113L468.765 237.245L473.964 230.286L475.895 231.087L473.231 234.51C473.046 234.741 472.838 234.987 472.606 235.248C472.38 235.511 472.157 235.759 471.937 235.991C471.717 236.224 471.532 236.413 471.383 236.56L471.448 236.587C471.595 236.5 471.782 236.391 472.011 236.26C472.244 236.127 472.489 235.989 472.747 235.849C473.009 235.706 473.258 235.573 473.492 235.45C473.731 235.324 473.931 235.226 474.09 235.155L479.546 232.6L481.631 233.464L478.876 237.139C478.759 237.299 478.601 237.497 478.402 237.732C478.208 237.965 478.003 238.195 477.787 238.424C477.582 238.652 477.399 238.837 477.239 238.979L477.304 239.006C477.483 238.894 477.735 238.746 478.059 238.561C478.392 238.376 478.75 238.181 479.132 237.977C479.519 237.77 479.886 237.582 480.232 237.412L485.257 234.967L487.155 235.754L476.91 240.621L474.776 239.737ZM492.357 237.745C493.493 238.216 494.134 238.737 494.281 239.308C494.433 239.882 494.051 240.519 493.136 241.221L487.945 245.203L486.59 244.641L487.319 243.651L487.254 243.624C486.721 243.733 486.229 243.8 485.777 243.827C485.325 243.854 484.877 243.827 484.432 243.747C483.987 243.673 483.511 243.53 483.002 243.319C482.467 243.097 482.072 242.835 481.817 242.532C481.567 242.225 481.495 241.888 481.6 241.519C481.705 241.151 482.025 240.762 482.559 240.353C483.353 239.743 484.294 239.428 485.38 239.406C486.472 239.387 487.736 239.65 489.174 240.196L490.78 240.805L491.184 240.495C491.719 240.085 491.953 239.732 491.889 239.437C491.83 239.143 491.538 238.888 491.014 238.67C490.565 238.484 490.074 238.347 489.54 238.257C489.007 238.168 488.459 238.103 487.896 238.061L488.436 236.919C489.074 236.947 489.734 237.029 490.417 237.163C491.105 237.3 491.751 237.494 492.357 237.745ZM489.741 241.592L488.546 241.138C487.566 240.765 486.759 240.595 486.124 240.628C485.489 240.661 484.953 240.846 484.516 241.18C484.135 241.473 483.989 241.741 484.078 241.987C484.171 242.228 484.434 242.439 484.866 242.618C485.526 242.892 486.233 242.995 486.986 242.929C487.749 242.861 488.445 242.586 489.072 242.105L489.741 241.592ZM503.025 242.167C503.177 242.23 503.335 242.304 503.499 242.388C503.664 242.473 503.799 242.551 503.906 242.623L502.195 243.725C502.109 243.656 501.989 243.582 501.835 243.502C501.687 243.424 501.548 243.358 501.418 243.304C501.077 243.163 500.704 243.066 500.298 243.013C499.897 242.956 499.48 242.953 499.047 243.004C498.618 243.052 498.193 243.158 497.769 243.323C497.346 243.488 496.944 243.716 496.563 244.008L492.528 247.103L490.614 246.309L498.328 240.393L499.821 241.012L498.721 242.161L498.811 242.198C499.263 242.062 499.736 241.962 500.228 241.897C500.721 241.832 501.205 241.819 501.681 241.857C502.166 241.893 502.614 241.997 503.025 242.167ZM509.224 244.736C510.024 245.068 510.569 245.461 510.859 245.916C511.149 246.371 511.188 246.862 510.976 247.389C510.764 247.916 510.296 248.457 509.571 249.013L508.693 249.687L502.697 247.202C501.971 247.784 501.628 248.322 501.667 248.816C501.712 249.312 502.137 249.727 502.943 250.061C503.516 250.299 504.076 250.476 504.624 250.593C505.181 250.709 505.796 250.796 506.468 250.856L505.137 251.877C504.507 251.829 503.918 251.742 503.369 251.613C502.82 251.484 502.222 251.285 501.573 251.016C500.691 250.651 500.061 250.217 499.683 249.715C499.315 249.211 499.235 248.656 499.441 248.05C499.654 247.446 500.194 246.812 501.063 246.145C501.927 245.483 502.831 244.99 503.776 244.668C504.721 244.346 505.659 244.192 506.592 244.205C507.524 244.218 508.401 244.396 509.224 244.736ZM507.99 245.682C507.39 245.433 506.736 245.36 506.028 245.462C505.326 245.566 504.619 245.852 503.909 246.32L507.998 248.015C508.378 247.717 508.643 247.424 508.795 247.135C508.951 246.849 508.967 246.581 508.843 246.332C508.723 246.085 508.439 245.868 507.99 245.682ZM520.108 245.724L517.383 247.814C517.1 248.031 516.813 248.239 516.521 248.436C516.236 248.636 516.008 248.789 515.838 248.894L515.943 248.937C516.402 248.809 516.855 248.736 517.303 248.719C517.755 248.698 518.196 248.724 518.625 248.798C519.059 248.873 519.471 248.992 519.86 249.153C520.547 249.438 521.032 249.757 521.313 250.11C521.599 250.459 521.663 250.845 521.504 251.267C521.35 251.692 520.943 252.157 520.283 252.663L515.252 256.522L513.346 255.732L518.07 252.108C518.67 251.648 518.975 251.245 518.985 250.898C519.001 250.548 518.708 250.248 518.108 249.999C517.529 249.759 516.965 249.649 516.415 249.668C515.875 249.686 515.33 249.82 514.78 250.069C514.234 250.315 513.674 250.659 513.098 251.101L509.265 254.04L507.358 253.25L518.201 244.934L520.108 245.724ZM529.746 257.952C529.105 258.444 528.439 258.84 527.747 259.14C527.055 259.441 526.351 259.646 525.634 259.755C524.921 259.86 524.212 259.873 523.506 259.795C522.805 259.713 522.125 259.535 521.465 259.262C520.848 259.006 520.372 258.704 520.034 258.356C519.702 258.004 519.516 257.619 519.476 257.202C519.447 256.784 519.578 256.342 519.869 255.875C520.161 255.409 520.627 254.93 521.268 254.438C522.118 253.786 523.009 253.304 523.94 252.993C524.88 252.68 525.826 252.537 526.775 252.563C527.725 252.589 528.64 252.784 529.522 253.15C530.349 253.493 530.924 253.915 531.245 254.416C531.567 254.917 531.609 255.469 531.371 256.073C531.133 256.677 530.592 257.303 529.746 257.952ZM523.232 255.252C522.669 255.683 522.267 256.084 522.024 256.456C521.787 256.829 521.729 257.167 521.851 257.47C521.977 257.77 522.305 258.029 522.835 258.249C523.365 258.469 523.903 258.568 524.447 258.546C524.996 258.521 525.549 258.388 526.105 258.147C526.661 257.906 527.221 257.569 527.783 257.138C528.345 256.707 528.743 256.309 528.976 255.945C529.214 255.577 529.268 255.245 529.137 254.95C529.011 254.65 528.68 254.39 528.144 254.168C527.355 253.84 526.551 253.776 525.733 253.975C524.916 254.174 524.082 254.6 523.232 255.252ZM543.605 259.16L535.891 265.076L534.39 264.454L535.169 263.55L535.063 263.507C534.609 263.631 534.148 263.701 533.679 263.715C533.215 263.726 532.763 263.689 532.322 263.605C531.877 263.525 531.457 263.403 531.062 263.24C530.386 262.959 529.905 262.645 529.619 262.296C529.343 261.945 529.284 261.559 529.444 261.136C529.603 260.714 530.01 260.251 530.665 259.749L535.703 255.885L537.618 256.678L532.886 260.307C532.287 260.767 531.979 261.169 531.963 261.514C531.952 261.86 532.247 262.158 532.848 262.407C533.426 262.647 533.988 262.759 534.533 262.744C535.079 262.728 535.621 262.596 536.161 262.348C536.707 262.102 537.27 261.757 537.851 261.311L541.69 258.366L543.605 259.16ZM546.863 267.022C546.356 267.411 545.786 267.679 545.151 267.828C544.516 267.976 543.832 268.005 543.099 267.916C542.376 267.825 541.617 267.614 540.822 267.285C540.195 267.025 539.693 266.77 539.318 266.521C538.943 266.278 538.635 266.013 538.393 265.726L539.807 264.641C540.063 264.95 540.393 265.263 540.797 265.579C541.207 265.897 541.65 266.154 542.126 266.352C542.754 266.612 543.289 266.735 543.732 266.721C544.18 266.703 544.545 266.586 544.828 266.369C544.996 266.24 545.088 266.103 545.104 265.956C545.131 265.808 545.062 265.617 544.899 265.385C544.745 265.151 544.479 264.838 544.1 264.445C543.727 264.06 543.444 263.712 543.249 263.401C543.055 263.09 542.995 262.788 543.069 262.494C543.148 262.198 543.403 261.884 543.835 261.552C544.518 261.028 545.35 260.761 546.33 260.75C547.321 260.738 548.335 260.948 549.374 261.378C549.925 261.607 550.396 261.859 550.785 262.136C551.184 262.411 551.528 262.716 551.818 263.05L549.984 263.747C549.732 263.461 549.449 263.196 549.135 262.951C548.832 262.704 548.469 262.493 548.047 262.318C547.555 262.114 547.114 262.009 546.725 262.001C546.34 261.995 546.027 262.085 545.786 262.27C545.605 262.409 545.513 262.553 545.512 262.7C545.511 262.848 545.6 263.033 545.777 263.255C545.96 263.479 546.232 263.775 546.592 264.144C546.951 264.501 547.227 264.835 547.422 265.147C547.626 265.456 547.694 265.762 547.627 266.063C547.559 266.364 547.304 266.684 546.863 267.022ZM558.16 265.02C558.96 265.352 559.505 265.745 559.795 266.2C560.085 266.655 560.124 267.146 559.912 267.673C559.7 268.199 559.232 268.741 558.507 269.297L557.629 269.97L551.634 267.485C550.907 268.068 550.564 268.606 550.603 269.1C550.648 269.596 551.073 270.011 551.879 270.345C552.452 270.582 553.012 270.76 553.56 270.877C554.117 270.992 554.732 271.08 555.405 271.139L554.074 272.16C553.443 272.113 552.854 272.025 552.305 271.896C551.757 271.768 551.158 271.569 550.509 271.3C549.627 270.934 548.997 270.501 548.619 269.998C548.251 269.494 548.171 268.939 548.378 268.334C548.59 267.73 549.13 267.095 549.999 266.429C550.863 265.766 551.767 265.274 552.712 264.952C553.657 264.63 554.595 264.475 555.528 264.489C556.46 264.502 557.338 264.679 558.16 265.02ZM556.926 265.966C556.326 265.717 555.672 265.643 554.964 265.745C554.262 265.849 553.555 266.136 552.845 266.604L556.934 268.299C557.314 268.001 557.58 267.707 557.731 267.419C557.888 267.133 557.903 266.865 557.779 266.615C557.659 266.368 557.375 266.152 556.926 265.966Z" fill="#160042"/>
</g>
<defs>
<filter id="filter0_d_2591_6722" x="0" y="0" width="214.771" height="120.048" filterUnits="userSpaceOnUse" color-interpolation-filters="sRGB">
<feFlood flood-opacity="0" result="BackgroundImageFix"/>
<feColorMatrix in="SourceAlpha" type="matrix" values="0 0 0 0 0 0 0 0 0 0 0 0 0 0 0 0 0 0 127 0" result="hardAlpha"/>
<feOffset dy="4.24508"/>
<feComposite in2="hardAlpha" operator="out"/>
<feColorMatrix type="matrix" values="0 0 0 0 0.278431 0 0 0 0 0.537255 0 0 0 0 0.784314 0 0 0 1 0"/>
<feBlend mode="normal" in2="BackgroundImageFix" result="effect1_dropShadow_2591_6722"/>
<feBlend mode="normal" in="SourceGraphic" in2="effect1_dropShadow_2591_6722" result="shape"/>
</filter>
<filter id="filter1_d_2591_6722" x="417" y="186" width="214.771" height="120.048" filterUnits="userSpaceOnUse" color-interpolation-filters="sRGB">
<feFlood flood-opacity="0" result="BackgroundImageFix"/>
<feColorMatrix in="SourceAlpha" type="matrix" values="0 0 0 0 0 0 0 0 0 0 0 0 0 0 0 0 0 0 127 0" result="hardAlpha"/>
<feOffset dy="4.24508"/>
<feComposite in2="hardAlpha" operator="out"/>
<feColorMatrix type="matrix" values="0 0 0 0 0.278431 0 0 0 0 0.537255 0 0 0 0 0.784314 0 0 0 1 0"/>
<feBlend mode="normal" in2="BackgroundImageFix" result="effect1_dropShadow_2591_6722"/>
<feBlend mode="normal" in="SourceGraphic" in2="effect1_dropShadow_2591_6722" result="shape"/>
</filter>
</defs>
</svg>
