<svg width="215" height="170" viewBox="0 0 215 170" fill="none" xmlns="http://www.w3.org/2000/svg">
<rect x="74.3262" y="81.7295" width="4.83066" height="108.972" rx="2.41533" transform="rotate(39.1357 74.3262 81.7295)" fill="white"/>
<g filter="url(#filter0_d_2591_6720)">
<rect width="150.234" height="95.7621" rx="5.3655" transform="matrix(0.923789 0.382901 -0.793497 0.608574 75.9863 0)" fill="white" shape-rendering="crispEdges"/>
<path d="M62.9786 36.2144L73.1665 28.4007L75.1136 29.2077L64.9256 37.0214L62.9786 36.2144ZM80.404 34.1503C81.4153 34.5695 81.977 35.0685 82.0888 35.6473C82.2107 36.2247 81.7769 36.8929 80.7874 37.6518L75.7561 41.5106L73.8496 40.7203L78.5743 37.0967C79.1736 36.6371 79.4786 36.2339 79.4892 35.887C79.5045 35.5366 79.212 35.237 78.6117 34.9882C77.7409 34.6272 76.9052 34.5525 76.1046 34.764C75.3093 34.9778 74.475 35.4196 73.6016 36.0894L69.7689 39.0289L67.8624 38.2387L75.5766 32.3223L77.0612 32.9377L76.2836 33.8503L76.3891 33.894C76.8533 33.7681 77.3146 33.6986 77.7732 33.6856C78.2417 33.6712 78.6987 33.7042 79.1439 33.7845C79.5945 33.867 80.0145 33.9889 80.404 34.1503ZM81.9041 44.2235C81.055 43.8715 80.4611 43.458 80.1225 42.9828C79.784 42.5077 79.7397 41.9762 79.9897 41.3882C80.2397 40.8003 80.8154 40.1607 81.7166 39.4695C82.6551 38.7498 83.6055 38.2381 84.5679 37.9345C85.5303 37.6308 86.4777 37.5049 87.4102 37.5565C88.348 37.6104 89.2387 37.8123 90.0825 38.162C90.6179 38.3839 91.0555 38.6202 91.3953 38.8708C91.7451 39.1201 92.0064 39.3573 92.1792 39.5827L90.3012 40.352C90.0874 40.1262 89.847 39.9113 89.5798 39.7072C89.3126 39.5032 89.0195 39.335 88.7004 39.2028C88.1758 38.9853 87.6378 38.8803 87.0865 38.8878C86.5406 38.8976 85.9837 39.018 85.4157 39.2491C84.8532 39.4825 84.2792 39.8236 83.6939 40.2726C83.1271 40.7073 82.7351 41.1101 82.5179 41.4811C82.3054 41.8486 82.2697 42.1796 82.4106 42.474C82.5562 42.7649 82.8778 43.0134 83.3754 43.2197C83.8676 43.4237 84.3595 43.5672 84.8511 43.6502C85.3427 43.7332 85.8429 43.7841 86.3516 43.8029L84.9301 44.8932C84.4221 44.8802 83.9339 44.8233 83.4655 44.7225C82.9925 44.6252 82.472 44.4589 81.9041 44.2235ZM99.0957 41.8979C99.2472 41.9606 99.4051 42.0344 99.5697 42.119C99.7342 42.2037 99.8698 42.2818 99.9764 42.3535L98.2648 43.4553C98.1791 43.3868 98.0594 43.3125 97.9057 43.2323C97.7573 43.1544 97.6183 43.0885 97.4885 43.0347C97.1477 42.8935 96.7745 42.7964 96.3686 42.7434C95.9674 42.6869 95.5503 42.6841 95.1172 42.7351C94.6887 42.7826 94.2629 42.8887 93.8396 43.0536C93.4164 43.2185 93.0143 43.447 92.6334 43.7392L88.5986 46.8336L86.684 46.04L94.3981 40.1237L95.8909 40.7424L94.7916 41.8922L94.8809 41.9292C95.3334 41.7929 95.806 41.6924 96.2987 41.6277C96.7914 41.563 97.2754 41.5495 97.7509 41.5874C98.2364 41.624 98.6847 41.7275 99.0957 41.8979ZM105.294 44.4669C106.094 44.7987 106.639 45.1921 106.929 45.6471C107.219 46.102 107.258 46.5929 107.046 47.1198C106.834 47.6466 106.366 48.188 105.641 48.7438L104.763 49.4172L98.7677 46.9322C98.0414 47.5148 97.6979 48.053 97.7373 48.5468C97.782 49.0429 98.2073 49.4579 99.0131 49.7919C99.5864 50.0296 100.147 50.2069 100.694 50.3239C101.251 50.4397 101.866 50.5272 102.539 50.5864L101.208 51.6072C100.578 51.5601 99.9883 51.4722 99.4395 51.3435C98.8908 51.2149 98.2919 51.016 97.6428 50.747C96.7613 50.3816 96.1315 49.9477 95.7535 49.4453C95.3856 48.9415 95.305 48.3867 95.5118 47.7808C95.7239 47.1772 96.2644 46.5422 97.1331 45.8759C97.9972 45.2132 98.9016 44.7209 99.8463 44.3989C100.791 44.077 101.73 43.9226 102.662 43.9359C103.594 43.9492 104.472 44.1262 105.294 44.4669ZM104.06 45.4129C103.46 45.1641 102.806 45.0906 102.098 45.1924C101.396 45.2965 100.69 45.5828 99.979 46.0511L104.068 47.7459C104.448 47.4479 104.714 47.1547 104.865 46.8661C105.022 46.5798 105.038 46.312 104.913 46.0626C104.793 45.8156 104.509 45.599 104.06 45.4129ZM121.438 51.1586C122.444 51.5756 122.978 52.0605 123.041 52.6132C123.109 53.1682 122.65 53.8234 121.665 54.5788L116.62 58.4482L114.714 57.658L119.466 54.013C120.051 53.5641 120.36 53.1707 120.393 52.8328C120.425 52.4949 120.171 52.2139 119.63 51.9897C118.873 51.6759 118.117 51.6098 117.364 51.7915C116.62 51.9718 115.854 52.3649 115.064 52.9706L110.974 56.1078L109.067 55.3176L113.82 51.6726C114.21 51.3733 114.476 51.0993 114.617 50.8504C114.768 50.6003 114.79 50.376 114.682 50.1776C114.578 49.9756 114.346 49.7995 113.983 49.6493C113.459 49.4319 112.937 49.3365 112.419 49.3633C111.906 49.3923 111.383 49.5319 110.848 49.7823C110.318 50.0291 109.765 50.3734 109.189 50.8153L105.335 53.7708L103.429 52.9806L111.143 47.0642L112.627 47.6795L111.857 48.5868L111.962 48.6306C112.416 48.5001 112.863 48.425 113.306 48.4053C113.758 48.3842 114.194 48.4111 114.613 48.486C115.036 48.5573 115.429 48.668 115.792 48.8182C116.462 49.0962 116.925 49.4088 117.181 49.7562C117.441 50.0999 117.477 50.4774 117.291 50.8887L117.437 50.9492C118.137 50.7451 118.838 50.6707 119.54 50.726C120.243 50.7813 120.876 50.9255 121.438 51.1586ZM130.719 55.0055C131.52 55.3373 132.065 55.7306 132.355 56.1856C132.645 56.6406 132.684 57.1315 132.472 57.6583C132.26 58.1852 131.791 58.7265 131.066 59.2823L130.188 59.9557L124.193 57.4707C123.467 58.0534 123.123 58.5916 123.163 59.0854C123.207 59.5814 123.633 59.9965 124.438 60.3305C125.012 60.5681 125.572 60.7454 126.119 60.8625C126.677 60.9782 127.291 61.0657 127.964 61.1249L126.633 62.1457C126.003 62.0986 125.414 62.0107 124.865 61.8821C124.316 61.7534 123.717 61.5546 123.068 61.2856C122.187 60.9202 121.557 60.4862 121.179 59.9838C120.811 59.48 120.73 58.9252 120.937 58.3193C121.149 57.7157 121.69 57.0808 122.558 56.4145C123.423 55.7518 124.327 55.2594 125.272 54.9375C126.216 54.6155 127.155 54.4612 128.087 54.4744C129.02 54.4877 129.897 54.6647 130.719 55.0055ZM129.486 55.9515C128.885 55.7026 128.231 55.6291 127.524 55.731C126.821 55.8351 126.115 56.1213 125.404 56.5897L129.493 58.2844C129.873 57.9865 130.139 57.6932 130.29 57.4047C130.447 57.1183 130.463 56.8505 130.338 56.6012C130.219 56.3541 129.935 56.1375 129.486 55.9515ZM141.396 59.4307C142.407 59.8499 142.969 60.3489 143.08 60.9277C143.202 61.5051 142.769 62.1733 141.779 62.9322L136.748 66.791L134.841 66.0007L139.566 62.3772C140.165 61.9175 140.47 61.5143 140.481 61.1674C140.496 60.817 140.204 60.5174 139.603 60.2686C138.733 59.9076 137.897 59.8329 137.096 60.0444C136.301 60.2582 135.467 60.7 134.593 61.3698L130.761 64.3093L128.854 63.5191L136.568 57.6027L138.053 58.2181L137.275 59.1307L137.381 59.1744C137.845 59.0485 138.306 58.979 138.765 58.966C139.233 58.9517 139.69 58.9846 140.135 59.0649C140.586 59.1474 141.006 59.2693 141.396 59.4307ZM143.944 68.3741C144.193 68.4772 144.457 68.565 144.738 68.6374C145.023 68.7062 145.294 68.7607 145.549 68.8009L144.309 69.7522C144.019 69.7253 143.679 69.6638 143.288 69.5675C142.897 69.4713 142.52 69.3481 142.157 69.1979C141.649 68.9872 141.264 68.7425 141.002 68.4639C140.745 68.1818 140.677 67.8542 140.797 67.4812C140.916 67.1082 141.292 66.6795 141.924 66.1949L146.07 63.0149L144.845 62.5071L145.577 61.946L147.469 62.0471L149.746 61.0394L150.946 61.5371L149.232 62.8518L151.804 63.9178L150.557 64.8744L147.985 63.8085L143.859 66.9724C143.469 67.2717 143.292 67.5415 143.329 67.7817C143.366 68.022 143.571 68.2194 143.944 68.3741ZM157.37 66.0518C158.505 66.5226 159.147 67.0436 159.293 67.6148C159.445 68.1883 159.064 68.826 158.149 69.5279L152.957 73.5095L151.602 72.948L152.331 71.9576L152.266 71.9307C151.733 72.0391 151.241 72.1067 150.789 72.1336C150.338 72.1605 149.889 72.1338 149.444 72.0535C149 71.979 148.523 71.8365 148.015 71.6257C147.479 71.4038 147.084 71.1413 146.83 70.8381C146.58 70.5315 146.507 70.1941 146.612 69.8259C146.717 69.4578 147.037 69.0689 147.571 68.6592C148.366 68.0499 149.306 67.7344 150.393 67.7127C151.484 67.6932 152.749 67.9566 154.186 68.5029L155.792 69.1112L156.197 68.8012C156.731 68.3914 156.966 68.0387 156.901 67.7431C156.842 67.4497 156.551 67.1943 156.026 66.9768C155.577 66.7907 155.086 66.653 154.553 66.5637C154.019 66.4744 153.471 66.4091 152.908 66.3679L153.448 65.2251C154.086 65.2535 154.747 65.3351 155.429 65.4698C156.117 65.6067 156.764 65.8007 157.37 66.0518ZM154.753 69.8988L153.558 69.4446C152.578 69.0715 151.771 68.9015 151.136 68.9347C150.501 68.968 149.965 69.1521 149.529 69.487C149.148 69.7792 149.002 70.0479 149.09 70.2931C149.183 70.5348 149.446 70.7453 149.879 70.9246C150.539 71.1981 151.245 71.3016 151.998 71.2351C152.762 71.1673 153.457 70.8929 154.084 70.4119L154.753 69.8988ZM157.541 75.4094L155.626 74.6158L166.469 66.2998L168.384 67.0934L157.541 75.4094ZM79.3908 62.704L77.4762 61.9104L88.3192 53.5943L90.2338 54.3879L79.3908 62.704ZM93.9416 64.1577C93.3005 64.6494 92.6341 65.0455 91.9423 65.346C91.2505 65.6465 90.5461 65.8513 89.8291 65.9603C89.1168 66.0657 88.4078 66.0792 87.702 66.0007C87.0008 65.9186 86.3203 65.7408 85.6605 65.4673C85.0439 65.2118 84.567 64.9098 84.2297 64.5615C83.8971 64.2095 83.711 63.8251 83.6716 63.408C83.6422 62.9897 83.7732 62.5473 84.0648 62.0809C84.3564 61.6144 84.8227 61.1354 85.4638 60.6437C86.314 59.9917 87.2044 59.51 88.1351 59.1987C89.0759 58.8861 90.0211 58.7428 90.9705 58.7686C91.92 58.7944 92.8355 58.99 93.7171 59.3554C94.5446 59.6984 95.1191 60.1204 95.4406 60.6214C95.7622 61.1224 95.8041 61.6749 95.5664 62.2789C95.3287 62.8829 94.7871 63.5092 93.9416 64.1577ZM87.4271 61.4575C86.865 61.8886 86.4626 62.2899 86.2199 62.6613C85.9826 63.035 85.9248 63.3732 86.0464 63.6761C86.1727 63.9754 86.5008 64.235 87.0309 64.4546C87.5609 64.6743 88.0981 64.7735 88.6425 64.7522C89.1915 64.7273 89.7442 64.5941 90.3006 64.3527C90.857 64.1113 91.4162 63.775 91.9783 63.3439C92.5405 62.9128 92.9382 62.5151 93.1716 62.1508C93.4096 61.7829 93.4632 61.4511 93.3323 61.1553C93.206 60.856 92.8752 60.5954 92.3397 60.3734C91.5501 60.0461 90.7464 59.982 89.9288 60.1809C89.1112 60.3799 88.2772 60.8054 87.4271 61.4575ZM103.639 63.4679C104.775 63.9387 105.416 64.4597 105.563 65.0309C105.715 65.6044 105.333 66.2421 104.418 66.944L99.2264 70.9256L97.8716 70.3641L98.6006 69.3737L98.5357 69.3468C98.0027 69.4552 97.5105 69.5228 97.0588 69.5497C96.6072 69.5766 96.1588 69.5499 95.7136 69.4696C95.2691 69.3952 94.7927 69.2526 94.2843 69.0418C93.7489 68.8199 93.3538 68.5574 93.0992 68.2543C92.8492 67.9476 92.7768 67.6102 92.8818 67.2421C92.9869 66.874 93.3065 66.485 93.8408 66.0753C94.6352 65.466 95.5756 65.1505 96.662 65.1288C97.7538 65.1093 99.0183 65.3727 100.456 65.9191L102.062 66.5273L102.466 66.2173C103 65.8075 103.235 65.4548 103.171 65.1592C103.112 64.8658 102.82 64.6104 102.295 64.3929C101.847 64.2069 101.355 64.0692 100.822 63.9798C100.289 63.8905 99.7406 63.8252 99.1777 63.784L99.7179 62.6413C100.356 62.6696 101.016 62.7512 101.698 62.8859C102.386 63.0228 103.033 63.2168 103.639 63.4679ZM101.022 67.3149L99.8275 66.8608C98.8478 66.4876 98.0404 66.3176 97.4056 66.3509C96.7707 66.3841 96.2349 66.5682 95.7982 66.9031C95.4173 67.1953 95.271 67.464 95.3595 67.7092C95.4526 67.9509 95.7156 68.1614 96.1482 68.3407C96.8081 68.6142 97.5146 68.7177 98.2678 68.6512C99.0311 68.5834 99.7263 68.309 100.354 67.828L101.022 67.3149ZM104.774 73.3897C103.703 72.9459 103.178 72.3329 103.198 71.5508C103.228 70.7674 103.898 69.8733 105.208 68.8686C106.532 67.8531 107.86 67.2209 109.193 66.9719C110.531 66.7252 111.738 66.8249 112.814 67.2711C113.269 67.4594 113.613 67.6651 113.847 67.8883C114.085 68.1079 114.238 68.3359 114.305 68.5721C114.377 68.8106 114.391 69.0495 114.345 69.2887L114.435 69.3257C114.552 69.204 114.726 69.032 114.957 68.8097C115.199 68.586 115.436 68.3851 115.668 68.2069L118.442 66.0798L120.356 66.8734L109.513 75.1895L108.021 74.5708L108.732 73.6225L108.651 73.5889C108.266 73.6926 107.858 73.7624 107.428 73.7983C107.008 73.8328 106.575 73.8204 106.127 73.7611C105.685 73.7041 105.234 73.5803 104.774 73.3897ZM106.64 72.5909C107.457 72.9294 108.235 73.0131 108.975 72.8422C109.714 72.6712 110.494 72.2779 111.313 71.6624L111.529 71.4968C112.393 70.834 112.893 70.2591 113.028 69.7718C113.168 69.281 112.808 68.8574 111.948 68.5009C111.261 68.2162 110.497 68.1823 109.657 68.3991C108.826 68.6145 107.985 69.0483 107.135 69.7003C106.285 70.3524 105.813 70.9252 105.719 71.4187C105.636 71.911 105.943 72.3017 106.64 72.5909Z" fill="#160042"/>
</g>
<defs>
<filter id="filter0_d_2591_6720" x="0" y="0" width="214.771" height="120.048" filterUnits="userSpaceOnUse" color-interpolation-filters="sRGB">
<feFlood flood-opacity="0" result="BackgroundImageFix"/>
<feColorMatrix in="SourceAlpha" type="matrix" values="0 0 0 0 0 0 0 0 0 0 0 0 0 0 0 0 0 0 127 0" result="hardAlpha"/>
<feOffset dy="4.24508"/>
<feComposite in2="hardAlpha" operator="out"/>
<feColorMatrix type="matrix" values="0 0 0 0 0.933351 0 0 0 0 0.940289 0 0 0 0 0.974983 0 0 0 1 0"/>
<feBlend mode="normal" in2="BackgroundImageFix" result="effect1_dropShadow_2591_6720"/>
<feBlend mode="normal" in="SourceGraphic" in2="effect1_dropShadow_2591_6720" result="shape"/>
</filter>
</defs>
</svg>
