<svg width="215" height="119" viewBox="0 0 215 119" fill="none" xmlns="http://www.w3.org/2000/svg">
<g filter="url(#filter0_d_1403_4933)">
<rect width="150.234" height="95.7621" rx="5.3655" transform="matrix(0.923789 0.382901 -0.793497 0.608574 75.9863 0)" fill="white" shape-rendering="crispEdges"/>
<path d="M63.8475 36.5745L61.8923 35.7641L70.6587 29.0407L67.1864 27.6015L68.608 26.5112L77.4996 30.1967L76.078 31.2869L72.6138 29.8511L63.8475 36.5745ZM81.3459 34.5407C81.4973 34.6035 81.6553 34.6772 81.8198 34.7619C81.9844 34.8465 82.12 34.9247 82.2265 34.9963L80.515 36.0981C80.4293 36.0296 80.3096 35.9553 80.1558 35.8751C80.0075 35.7972 79.8685 35.7313 79.7386 35.6775C79.3979 35.5363 79.0246 35.4392 78.6188 35.3862C78.2176 35.3297 77.8004 35.327 77.3673 35.378C76.9389 35.4254 76.5131 35.5316 76.0898 35.6964C75.6666 35.8613 75.2645 36.0898 74.8835 36.382L70.8488 39.4765L68.9342 38.6829L76.6483 32.7665L78.141 33.3852L77.0418 34.535L77.131 34.572C77.5836 34.4358 78.0562 34.3353 78.5489 34.2705C79.0415 34.2058 79.5256 34.1924 80.001 34.2303C80.4866 34.2669 80.9348 34.3703 81.3459 34.5407ZM87.4872 37.0862C88.623 37.557 89.2642 38.078 89.4109 38.6492C89.563 39.2227 89.1814 39.8604 88.2662 40.5623L83.0747 44.544L81.7198 43.9824L82.4488 42.992L82.3839 42.9651C81.851 43.0735 81.3587 43.1412 80.9071 43.168C80.4555 43.1949 80.0071 43.1682 79.5618 43.0879C79.1174 43.0135 78.6409 42.8709 78.1325 42.6602C77.5971 42.4382 77.2021 42.1757 76.9475 41.8726C76.6975 41.5659 76.625 41.2285 76.7301 40.8604C76.8351 40.4923 77.1548 40.1034 77.689 39.6936C78.4834 39.0843 79.4238 38.7688 80.5102 38.7471C81.602 38.7277 82.8666 38.9911 84.3038 39.5374L85.9102 40.1456L86.3144 39.8356C86.8486 39.4259 87.0835 39.0732 87.0191 38.7775C86.9601 38.4841 86.6683 38.2287 86.1437 38.0113C85.6947 37.8252 85.2036 37.6875 84.6703 37.5981C84.1369 37.5088 83.5888 37.4435 83.026 37.4023L83.5662 36.2596C84.204 36.288 84.8642 36.3695 85.5467 36.5042C86.2346 36.6411 86.8815 36.8352 87.4872 37.0862ZM84.8707 40.9332L83.6758 40.4791C82.696 40.1059 81.8887 39.9359 81.2538 39.9692C80.6189 40.0024 80.0832 40.1865 79.6465 40.5214C79.2655 40.8136 79.1193 41.0823 79.2078 41.3275C79.3009 41.5692 79.5638 41.7797 79.9965 41.9591C80.6563 42.2326 81.3628 42.3361 82.1161 42.2696C82.8794 42.2017 83.5746 41.9273 84.2018 41.4463L84.8707 40.9332ZM98.2853 41.5619C99.2967 41.9811 99.8583 42.4801 99.9701 43.0589C100.092 43.6363 99.6582 44.3045 98.6687 45.0634L93.6374 48.9221L91.731 48.1319L96.4556 44.5083C97.0549 44.0487 97.3599 43.6455 97.3705 43.2986C97.3859 42.9482 97.0934 42.6486 96.493 42.3998C95.6222 42.0388 94.7865 41.9641 93.9859 42.1756C93.1906 42.3894 92.3563 42.8312 91.4829 43.501L87.6502 46.4405L85.7437 45.6503L93.4579 39.7339L94.9425 40.3493L94.165 41.2619L94.2704 41.3056C94.7346 41.1797 95.1959 41.1102 95.6545 41.0972C96.1231 41.0828 96.58 41.1158 97.0252 41.1961C97.4758 41.2786 97.8959 41.4005 98.2853 41.5619ZM104.544 50.8414C104.038 51.2298 103.467 51.4982 102.832 51.6466C102.197 51.795 101.513 51.8243 100.78 51.7346C100.058 51.6436 99.2987 51.4333 98.5036 51.1038C97.8763 50.8437 97.3749 50.5893 96.9996 50.3404C96.625 50.0973 96.3166 49.8323 96.0743 49.5452L97.4889 48.4603C97.7443 48.7692 98.0743 49.0816 98.4789 49.3975C98.8889 49.7157 99.3318 49.9734 99.8078 50.1707C100.435 50.4307 100.97 50.5538 101.413 50.5398C101.861 50.5223 102.227 50.4049 102.51 50.1876C102.677 50.0593 102.769 49.9217 102.786 49.7749C102.812 49.6267 102.744 49.4364 102.58 49.204C102.427 48.9702 102.161 48.6568 101.782 48.2638C101.409 47.8787 101.125 47.5307 100.931 47.2196C100.737 46.9086 100.677 46.6065 100.751 46.3133C100.829 46.0166 101.085 45.7025 101.517 45.3712C102.2 44.8474 103.031 44.5802 104.012 44.5694C105.002 44.5574 106.017 44.7665 107.055 45.1969C107.607 45.4256 108.077 45.6782 108.466 45.9548C108.866 46.2301 109.21 46.5347 109.499 46.8687L107.666 47.5658C107.413 47.2801 107.13 47.0147 106.817 46.7695C106.513 46.5229 106.151 46.3123 105.729 46.1374C105.237 45.9334 104.796 45.8275 104.406 45.8196C104.022 45.814 103.709 45.9039 103.467 46.0892C103.286 46.2281 103.195 46.3715 103.194 46.5192C103.193 46.667 103.281 46.8517 103.459 47.0735C103.642 47.2975 103.913 47.5939 104.274 47.9629C104.632 48.3202 104.909 48.6544 105.103 48.9654C105.308 49.2752 105.376 49.5806 105.308 49.8819C105.24 50.1831 104.986 50.5029 104.544 50.8414ZM115.356 50.2842L113.174 49.3797L106.707 54.3394L104.801 53.5492L111.267 48.5894L109.799 47.9808L110.586 47.3769L112.536 47.6167L113.072 47.2052C113.727 46.7028 114.367 46.3531 114.99 46.156C115.619 45.9611 116.242 45.8926 116.858 45.9504C117.484 46.0069 118.111 46.1652 118.738 46.4252C119.149 46.5956 119.495 46.7745 119.775 46.9621C120.06 47.1461 120.282 47.3148 120.44 47.4682L118.705 48.2144C118.572 48.099 118.413 47.9781 118.228 47.8519C118.047 47.7221 117.827 47.6034 117.567 47.4958C117.134 47.3165 116.699 47.2733 116.261 47.3663C115.829 47.4615 115.39 47.6801 114.944 48.0222L114.421 48.423L116.604 49.3275L115.356 50.2842ZM122.248 56.2033C121.607 56.695 120.94 57.0911 120.248 57.3917C119.557 57.6922 118.852 57.897 118.135 58.0059C117.423 58.1114 116.714 58.1248 116.008 58.0463C115.307 57.9643 114.626 57.7865 113.967 57.513C113.35 57.2574 112.873 56.9555 112.536 56.6071C112.203 56.2552 112.017 55.8707 111.978 55.4537C111.948 55.0353 112.079 54.593 112.371 54.1265C112.662 53.6601 113.129 53.181 113.77 52.6893C114.62 52.0373 115.51 51.5557 116.441 51.2444C117.382 50.9318 118.327 50.7884 119.277 50.8142C120.226 50.84 121.142 51.0356 122.023 51.401C122.851 51.744 123.425 52.166 123.747 52.667C124.068 53.168 124.11 53.7206 123.872 54.3246C123.635 54.9286 123.093 55.5548 122.248 56.2033ZM115.733 53.5031C115.171 53.9342 114.769 54.3355 114.526 54.7069C114.289 55.0806 114.231 55.4189 114.352 55.7218C114.479 56.0211 114.807 56.2806 115.337 56.5003C115.867 56.72 116.404 56.8192 116.949 56.7978C117.498 56.7729 118.05 56.6398 118.607 56.3983C119.163 56.1569 119.722 55.8207 120.284 55.3896C120.847 54.9584 121.244 54.5607 121.478 54.1964C121.716 53.8285 121.769 53.4967 121.638 53.201C121.512 52.9016 121.181 52.641 120.646 52.4191C119.856 52.0918 119.053 52.0276 118.235 52.2266C117.417 52.4256 116.583 52.8511 115.733 53.5031ZM132.975 55.9406C133.127 56.0034 133.285 56.0771 133.449 56.1618C133.614 56.2464 133.749 56.3246 133.856 56.3962L132.144 57.498C132.059 57.4296 131.939 57.3552 131.785 57.2751C131.637 57.1971 131.498 57.1312 131.368 57.0774C131.027 56.9362 130.654 56.8391 130.248 56.7862C129.847 56.7296 129.43 56.7269 128.997 56.7779C128.568 56.8253 128.143 56.9315 127.719 57.0963C127.296 57.2612 126.894 57.4897 126.513 57.7819L122.478 60.8764L120.564 60.0828L128.278 54.1664L129.771 54.7851L128.671 55.9349L128.761 55.9719C129.213 55.8357 129.686 55.7352 130.178 55.6704C130.671 55.6057 131.155 55.5923 131.631 55.6302C132.116 55.6668 132.564 55.7702 132.975 55.9406ZM145.745 61.2334C146.751 61.6504 147.285 62.1353 147.347 62.688C147.415 63.2431 146.957 63.8982 145.972 64.6536L140.927 68.523L139.02 67.7328L143.773 64.0879C144.358 63.6389 144.667 63.2455 144.699 62.9076C144.731 62.5697 144.477 62.2887 143.936 62.0645C143.179 61.7507 142.424 61.6846 141.67 61.8663C140.927 62.0467 140.16 62.4397 139.371 63.0454L135.28 66.1826L133.374 65.3924L138.126 61.7474C138.516 61.4482 138.782 61.1741 138.923 60.9252C139.075 60.6751 139.096 60.4508 138.988 60.2524C138.885 60.0504 138.652 59.8743 138.29 59.7241C137.765 59.5067 137.244 59.4113 136.726 59.4381C136.213 59.4671 135.689 59.6068 135.155 59.8571C134.625 60.1039 134.071 60.4483 133.495 60.8901L129.642 63.8456L127.735 63.0554L135.449 57.139L136.934 57.7544L136.163 58.6617L136.269 58.7054C136.722 58.5749 137.17 58.4998 137.612 58.4801C138.065 58.459 138.5 58.4859 138.919 58.5608C139.343 58.6321 139.736 58.7428 140.098 58.893C140.769 59.171 141.232 59.4837 141.487 59.831C141.747 60.1747 141.784 60.5522 141.598 60.9635L141.744 61.024C142.443 60.8199 143.144 60.7455 143.847 60.8008C144.55 60.8561 145.182 61.0003 145.745 61.2334ZM155.026 65.0803C155.826 65.4121 156.371 65.8055 156.661 66.2604C156.951 66.7154 156.99 67.2063 156.778 67.7331C156.566 68.26 156.098 68.8013 155.373 69.3571L154.495 70.0305L148.5 67.5455C147.773 68.1282 147.43 68.6664 147.469 69.1602C147.514 69.6562 147.939 70.0713 148.745 70.4053C149.318 70.6429 149.879 70.8202 150.426 70.9373C150.983 71.053 151.598 71.1405 152.271 71.1997L150.94 72.2205C150.31 72.1734 149.72 72.0856 149.171 71.9569C148.623 71.8282 148.024 71.6294 147.375 71.3604C146.493 70.995 145.863 70.5611 145.485 70.0586C145.118 69.5548 145.037 69 145.244 68.3942C145.456 67.7905 145.996 67.1556 146.865 66.4893C147.729 65.8266 148.634 65.3342 149.578 65.0123C150.523 64.6903 151.461 64.536 152.394 64.5493C153.326 64.5625 154.204 64.7395 155.026 65.0803ZM153.792 66.0263C153.192 65.7774 152.538 65.7039 151.83 65.8058C151.128 65.9099 150.422 66.1961 149.711 66.6645L153.8 68.3593C154.18 68.0613 154.446 67.768 154.597 67.4795C154.754 67.1931 154.77 66.9253 154.645 66.676C154.525 66.4289 154.241 66.2123 153.792 66.0263ZM156.039 74.9517C154.968 74.5078 154.443 73.8949 154.463 73.1128C154.493 72.3294 155.163 71.4353 156.473 70.4305C157.797 69.415 159.125 68.7828 160.458 68.5339C161.796 68.2872 163.003 68.3869 164.08 68.833C164.534 69.0213 164.878 69.2271 165.112 69.4502C165.35 69.6699 165.503 69.8978 165.57 70.1341C165.642 70.3726 165.656 70.6115 165.61 70.8507L165.7 70.8876C165.817 70.766 165.991 70.594 166.223 70.3716C166.464 70.148 166.701 69.9471 166.933 69.7689L169.707 67.6418L171.621 68.4354L160.778 76.7514L159.286 76.1327L159.997 75.1845L159.916 75.1508C159.531 75.2546 159.123 75.3244 158.693 75.3602C158.273 75.3948 157.84 75.3824 157.392 75.3231C156.95 75.266 156.499 75.1423 156.039 74.9517ZM157.906 74.1528C158.722 74.4913 159.5 74.5751 160.24 74.4041C160.979 74.2331 161.759 73.8399 162.578 73.2244L162.794 73.0587C163.658 72.396 164.158 71.821 164.293 71.3338C164.433 70.843 164.073 70.4193 163.213 70.0629C162.526 69.7782 161.763 69.7442 160.922 69.961C160.091 70.1765 159.25 70.6103 158.4 71.2623C157.55 71.9143 157.078 72.4871 156.984 72.9807C156.901 73.4729 157.208 73.8636 157.906 74.1528ZM79.6416 62.9726C78.5708 62.5287 78.0453 61.9157 78.0653 61.1336C78.0953 60.3502 78.7653 59.4561 80.0754 58.4514C81.3994 57.4359 82.7278 56.8037 84.0605 56.5548C85.3986 56.3081 86.6058 56.4078 87.6821 56.8539C88.1364 57.0422 88.4805 57.2479 88.7144 57.4711C88.9529 57.6907 89.1056 57.9187 89.1724 58.155C89.2447 58.3935 89.2582 58.6323 89.2129 58.8715L89.3021 58.9085C89.4191 58.7868 89.5934 58.6148 89.825 58.3925C90.0666 58.1688 90.3036 57.9679 90.5359 57.7898L93.3093 55.6627L95.2239 56.4562L84.3809 64.7723L82.8882 64.1536L83.5997 63.2053L83.5186 63.1717C83.1333 63.2755 82.7257 63.3453 82.2958 63.3811C81.8758 63.4156 81.4421 63.4032 80.9945 63.344C80.5523 63.2869 80.1014 63.1631 79.6416 62.9726ZM81.5081 62.1737C82.3248 62.5122 83.1028 62.596 83.8423 62.425C84.5818 62.254 85.3612 61.8607 86.1803 61.2453L86.3964 61.0796C87.2605 60.4169 87.7602 59.8419 87.8956 59.3546C88.0357 58.8638 87.6757 58.4402 86.8158 58.0838C86.1289 57.7991 85.365 57.7651 84.5242 57.9819C83.6933 58.1974 82.8529 58.6311 82.0027 59.2832C81.1525 59.9352 80.6806 60.508 80.587 61.0016C80.5033 61.4938 80.8104 61.8845 81.5081 62.1737ZM98.4963 61.3363C99.6321 61.8071 100.273 62.3281 100.42 62.8993C100.572 63.4728 100.191 64.1105 99.2753 64.8124L94.0838 68.794L92.7289 68.2325L93.4579 67.2421L93.393 67.2152C92.8601 67.3236 92.3678 67.3912 91.9162 67.4181C91.4646 67.445 91.0162 67.4183 90.571 67.338C90.1265 67.2636 89.6501 67.121 89.1417 66.9102C88.6062 66.6883 88.2112 66.4258 87.9566 66.1226C87.7066 65.816 87.6341 65.4786 87.7392 65.1105C87.8442 64.7423 88.1639 64.3534 88.6981 63.9437C89.4925 63.3344 90.4329 63.0189 91.5194 62.9972C92.6112 62.9777 93.8757 63.2411 95.3129 63.7874L96.9193 64.3957L97.3235 64.0857C97.8577 63.6759 98.0926 63.3232 98.0282 63.0276C97.9692 62.7342 97.6774 62.4788 97.1528 62.2613C96.7039 62.0753 96.2127 61.9375 95.6794 61.8482C95.146 61.7589 94.5979 61.6936 94.0351 61.6524L94.5753 60.5097C95.2132 60.538 95.8733 60.6196 96.5558 60.7543C97.2438 60.8912 97.8906 61.0852 98.4963 61.3363ZM95.8799 65.1833L94.6849 64.7292C93.7051 64.356 92.8978 64.186 92.2629 64.2192C91.6281 64.2525 91.0923 64.4366 90.6556 64.7715C90.2746 65.0637 90.1284 65.3324 90.2169 65.5776C90.31 65.8193 90.5729 66.0298 91.0056 66.2091C91.6654 66.4826 92.372 66.5861 93.1252 66.5196C93.8885 66.4518 94.5837 66.1774 95.2109 65.6964L95.8799 65.1833ZM101.28 70.3772C101.529 70.4803 101.793 70.5681 102.074 70.6404C102.359 70.7092 102.63 70.7637 102.886 70.8039L101.645 71.7553C101.355 71.7284 101.015 71.6669 100.624 71.5706C100.233 71.4744 99.8559 71.3512 99.4935 71.201C98.9851 70.9903 98.6001 70.7456 98.3385 70.467C98.0815 70.1849 98.0129 69.8573 98.1326 69.4843C98.2524 69.1113 98.6282 68.6825 99.26 68.198L103.406 65.018L102.181 64.5102L102.913 63.949L104.806 64.0502L107.082 63.0425L108.282 63.5401L106.568 64.8549L109.14 65.9209L107.893 66.8775L105.321 65.8116L101.195 68.9755C100.805 69.2748 100.628 69.5446 100.665 69.7848C100.702 70.025 100.907 70.2225 101.28 70.3772ZM114.706 68.0549C115.841 68.5256 116.483 69.0466 116.629 69.6179C116.781 70.1913 116.4 70.829 115.485 71.5309L110.293 75.5126L108.938 74.951L109.667 73.9606L109.602 73.9337C109.069 74.0422 108.577 74.1098 108.125 74.1367C107.674 74.1635 107.225 74.1368 106.78 74.0566C106.336 73.9821 105.859 73.8395 105.351 73.6288C104.815 73.4069 104.42 73.1443 104.166 72.8412C103.916 72.5345 103.843 72.1971 103.948 71.829C104.053 71.4609 104.373 71.072 104.907 70.6622C105.702 70.053 106.642 69.7375 107.729 69.7158C108.82 69.6963 110.085 69.9597 111.522 70.506L113.129 71.1142L113.533 70.8043C114.067 70.3945 114.302 70.0418 114.237 69.7462C114.178 69.4528 113.887 69.1973 113.362 68.9799C112.913 68.7938 112.422 68.6561 111.889 68.5668C111.355 68.4774 110.807 68.4122 110.244 68.371L110.785 67.2282C111.422 67.2566 112.083 67.3381 112.765 67.4728C113.453 67.6098 114.1 67.8038 114.706 68.0549ZM112.089 71.9019L110.894 71.4477C109.914 71.0746 109.107 70.9046 108.472 70.9378C107.837 70.9711 107.302 71.1551 106.865 71.4901C106.484 71.7822 106.338 72.0509 106.426 72.2962C106.519 72.5379 106.782 72.7484 107.215 72.9277C107.875 73.2012 108.581 73.3047 109.334 73.2382C110.098 73.1704 110.793 72.8959 111.42 72.4149L112.089 71.9019Z" fill="#160042"/>
</g>
<defs>
<filter id="filter0_d_1403_4933" x="0" y="0" width="214.771" height="120.048" filterUnits="userSpaceOnUse" color-interpolation-filters="sRGB">
<feFlood flood-opacity="0" result="BackgroundImageFix"/>
<feColorMatrix in="SourceAlpha" type="matrix" values="0 0 0 0 0 0 0 0 0 0 0 0 0 0 0 0 0 0 127 0" result="hardAlpha"/>
<feOffset dy="4.24508"/>
<feComposite in2="hardAlpha" operator="out"/>
<feColorMatrix type="matrix" values="0 0 0 0 0.933333 0 0 0 0 0.941176 0 0 0 0 0.976471 0 0 0 1 0"/>
<feBlend mode="normal" in2="BackgroundImageFix" result="effect1_dropShadow_1403_4933"/>
<feBlend mode="normal" in="SourceGraphic" in2="effect1_dropShadow_1403_4933" result="shape"/>
</filter>
</defs>
</svg>
